<svg width="34" height="26" viewBox="0 0 34 26" fill="none" xmlns="http://www.w3.org/2000/svg">
<path d="M33.2504 13.0003C33.2504 13.6903 32.6904 14.2503 32.0004 14.2503H5.01883L14.5521 23.7836C15.0404 24.2719 15.0404 25.0636 14.5521 25.552C14.3088 25.7953 13.9887 25.9186 13.6687 25.9186C13.3487 25.9186 13.0287 25.797 12.7853 25.552L1.11868 13.8853C1.00368 13.7703 0.91224 13.6321 0.848906 13.4788C0.72224 13.1738 0.72224 12.8288 0.848906 12.5238C0.91224 12.3705 1.00368 12.2319 1.11868 12.1169L12.7853 0.450234C13.2737 -0.038099 14.0654 -0.038099 14.5537 0.450234C15.0421 0.938568 15.0421 1.73029 14.5537 2.21863L5.02046 11.7519H32.0004C32.6904 11.7502 33.2504 12.3103 33.2504 13.0003Z" fill="#8271F0"/>
</svg>
